<svg width="304" height="19" viewBox="0 0 304 19" fill="none" xmlns="http://www.w3.org/2000/svg">
<path fill-rule="evenodd" clip-rule="evenodd" d="M100.782 1.6453C67.2589 1.25935 33.5985 2.66982 1.15042 8.59244C0.571495 8.6977 0.331161 8.90472 0.283795 8.95209C0.00661024 9.23278 -0.0232648 9.53101 0.0118218 9.77662C0.0328738 9.92573 0.175036 10.5555 0.952205 10.6204C1.48903 10.6643 5.29938 10.3573 6.76951 10.2784C13.6903 9.90819 20.5972 9.38014 27.5005 8.76963C43.1526 7.39073 58.7837 6.19779 74.4604 5.11186C83.2619 4.50135 92.0668 3.99609 100.867 3.58206C122.036 3.82942 143.153 4.79432 163.875 5.79078C155.639 6.29778 148.07 6.8118 141.795 7.14512C131.213 7.70651 120.65 8.36964 110.089 9.24329C104.663 9.69065 99.2438 10.1766 93.8282 10.7503C93.2282 10.8152 91.8616 10.8818 91.2002 10.9608C90.9195 10.9924 90.716 11.0433 90.6248 11.0783C90.0529 11.2994 89.981 11.752 89.974 11.98C89.9705 12.1186 90.0178 12.8748 90.9827 13.0221C135.846 19.9377 182.652 11.8923 227.677 18.6149C228.205 18.6939 228.699 18.329 228.778 17.7992C228.857 17.2711 228.492 16.7764 227.963 16.6974C185.557 10.3661 141.571 17.136 99.1105 12.166C102.821 11.8064 106.533 11.4818 110.249 11.1748C120.791 10.3029 131.334 9.64154 141.899 9.08015C152.53 8.51701 166.901 7.41704 181.945 6.72408C194.855 7.44335 207.758 8.25034 220.67 8.93453C226.117 9.22224 231.566 9.46084 237.011 9.75381C239.25 9.8731 245.009 10.3731 245.844 10.1871C246.494 10.0415 246.65 9.57663 246.688 9.3433C246.729 9.09068 246.704 8.77664 246.409 8.47665C246.318 8.38192 246.045 8.18544 245.483 8.02404C230.299 3.67506 205.437 3.74347 182.152 4.79431C177.143 4.51362 172.135 4.24696 167.124 4.00662C155.654 3.45401 144.058 2.89963 132.395 2.4628C165.263 1.65055 198.146 1.88388 231.038 2.47158C244.848 2.71894 282.073 4.21013 296.734 5.52763C296.555 5.71184 296.45 5.96797 296.462 6.2469C296.487 6.78022 296.941 7.19424 297.476 7.16968C300.501 7.02934 302.25 6.8504 302.943 6.66619C303.374 6.55216 303.609 6.36971 303.718 6.25042C303.985 5.96271 304.034 5.65393 303.981 5.36096C303.948 5.17851 303.866 4.97852 303.676 4.79431C303.55 4.668 303.241 4.47503 302.715 4.34346C296.952 2.91017 247.516 0.827764 231.073 0.533037C187.62 -0.242377 144.185 -0.400252 100.782 1.6453ZM233.729 7.64159C225.238 6.48899 215.284 6.08375 204.9 6.11006C210.189 6.41707 215.481 6.71707 220.773 6.99776C225.091 7.22758 229.41 7.42405 233.729 7.64159ZM60.7345 4.14873C49.5945 4.96976 38.4668 5.85744 27.3303 6.83987C26.0444 6.95215 24.7602 7.06267 23.4743 7.17144C35.7897 5.66271 48.2332 4.7031 60.7345 4.14873Z" fill="#7BC097"/>
</svg>
