<svg width="178" height="19" viewBox="0 0 178 19" fill="none" xmlns="http://www.w3.org/2000/svg">
<path fill-rule="evenodd" clip-rule="evenodd" d="M118.989 16.9807C138.618 17.3666 158.327 15.9562 177.326 10.0335C177.665 9.92827 177.806 9.72125 177.834 9.67389C177.996 9.3932 178.014 9.09497 177.993 8.84936C177.981 8.70024 177.898 8.07045 177.442 8.00554C177.128 7.96168 174.897 8.26868 174.036 8.34762C169.984 8.71779 165.94 9.24584 161.898 9.85634C152.733 11.2352 143.581 12.4282 134.401 13.5141C129.248 14.1246 124.092 14.6299 118.94 15.0439C106.545 14.7965 94.1802 13.8316 82.0468 12.8352C86.8695 12.3282 91.3009 11.8142 94.9752 11.4808C101.171 10.9195 107.356 10.2563 113.54 9.38268C116.717 8.93533 119.89 8.44936 123.061 7.87569C123.412 7.81078 124.213 7.74413 124.6 7.66518C124.764 7.63361 124.883 7.58272 124.937 7.54764C125.272 7.32659 125.314 6.87399 125.318 6.64593C125.32 6.50734 125.292 5.75121 124.727 5.60384C98.4585 -1.31173 71.0526 6.73363 44.6893 0.0110319C44.3801 -0.0679133 44.0905 0.296991 44.0443 0.826799C43.998 1.35485 44.2117 1.84958 44.5219 1.92852C69.3515 8.2599 95.1067 1.48994 119.968 6.45996C117.796 6.8196 115.622 7.14415 113.446 7.45116C107.274 8.32306 101.1 8.98443 94.9146 9.54582C88.6897 10.109 80.2749 11.2089 71.4666 11.9019C63.9073 11.1826 56.3523 10.3756 48.792 9.69144C45.6025 9.40373 42.412 9.16513 39.2236 8.87216C37.9128 8.75286 34.5406 8.25288 34.0516 8.43884C33.6715 8.58445 33.5801 9.04934 33.5575 9.28266C33.5339 9.53529 33.5482 9.84932 33.7208 10.1493C33.7742 10.244 33.9345 10.4405 34.2632 10.6019C43.1536 14.9509 57.7112 14.8825 71.3453 13.8317C74.278 14.1123 77.2107 14.379 80.1444 14.6193C86.8603 15.172 93.6501 15.7263 100.479 16.1632C81.2343 16.9754 61.9803 16.7421 42.7212 16.1544C34.6351 15.907 12.8387 14.4158 4.25438 13.0983C4.35916 12.9141 4.42076 12.658 4.41357 12.3791C4.3992 11.8457 4.13318 11.4317 3.81987 11.4563C2.04897 11.5966 1.02483 11.7756 0.61908 11.9598C0.366395 12.0738 0.228745 12.2563 0.16507 12.3755C0.00892691 12.6633 -0.0198359 12.972 0.0109868 13.265C0.0305028 13.4475 0.078751 13.6474 0.189698 13.8316C0.263657 13.958 0.444443 14.1509 0.752594 14.2825C4.12697 15.7158 33.0726 17.7982 42.7007 18.0929C68.1435 18.8683 93.5762 19.0262 118.989 16.9807ZM41.1454 10.9844C46.1171 12.137 51.9455 12.5422 58.0256 12.5159C54.9285 12.2089 51.8305 11.9089 48.7314 11.6282C46.2034 11.3984 43.6744 11.2019 41.1454 10.9844ZM142.438 14.4772C148.961 13.6562 155.477 12.7685 161.997 11.7861C162.75 11.6738 163.502 11.5633 164.255 11.4545C157.044 12.9633 149.758 13.9229 142.438 14.4772Z" fill="#FF8D4E"/>
</svg>
